<mxfile host="app.diagrams.net" modified="2023-06-28T09:20:04.200Z" agent="Mozilla/5.0 (Macintosh; Intel Mac OS X 10_15_7) AppleWebKit/537.36 (KHTML, like Gecko) Chrome/114.0.0.0 Safari/537.36" etag="7u6yhDq-oZb4vsUCh6lp" version="21.5.1" type="github">
  <diagram name="Page-1" id="82Kx7SFXTsUjgZJkPYat">
    <mxGraphModel dx="1434" dy="1895" grid="1" gridSize="10" guides="1" tooltips="1" connect="1" arrows="1" fold="1" page="1" pageScale="1" pageWidth="850" pageHeight="1100" math="0" shadow="0">
      <root>
        <mxCell id="0" />
        <mxCell id="1" parent="0" />
        <mxCell id="CwB2cmDh5bo-2nJxtTwJ-1" value="StatsProvider (NullStatsProvider)" style="rounded=0;whiteSpace=wrap;html=1;" vertex="1" parent="1">
          <mxGeometry x="80" y="120" width="150" height="60" as="geometry" />
        </mxCell>
        <mxCell id="CwB2cmDh5bo-2nJxtTwJ-2" value="MetadataBookieDriver&lt;br&gt;&amp;nbsp;(ZKMetadataBookieDriver&lt;span style=&quot;background-color: initial;&quot;&gt;)&lt;/span&gt;" style="rounded=0;whiteSpace=wrap;html=1;" vertex="1" parent="1">
          <mxGeometry x="120" y="210" width="170" height="60" as="geometry" />
        </mxCell>
        <mxCell id="CwB2cmDh5bo-2nJxtTwJ-4" value="Zookeeper" style="rounded=1;whiteSpace=wrap;html=1;" vertex="1" parent="1">
          <mxGeometry x="180" y="310" width="80" height="30" as="geometry" />
        </mxCell>
        <mxCell id="CwB2cmDh5bo-2nJxtTwJ-5" value="ZKLayourManager" style="rounded=1;whiteSpace=wrap;html=1;" vertex="1" parent="1">
          <mxGeometry x="290" y="290" width="110" height="30" as="geometry" />
        </mxCell>
        <mxCell id="CwB2cmDh5bo-2nJxtTwJ-7" value="RegistrationManager&lt;br&gt;&amp;nbsp;(ZKRegistrationManager&lt;span style=&quot;background-color: initial;&quot;&gt;)&lt;/span&gt;" style="rounded=0;whiteSpace=wrap;html=1;" vertex="1" parent="1">
          <mxGeometry x="150" y="360" width="170" height="60" as="geometry" />
        </mxCell>
        <mxCell id="CwB2cmDh5bo-2nJxtTwJ-8" value="/ledgers&lt;br&gt;&lt;span style=&quot;&quot;&gt;&lt;span style=&quot;white-space: pre;&quot;&gt;&amp;nbsp;&amp;nbsp;&amp;nbsp;&amp;nbsp;&lt;/span&gt;&lt;/span&gt;/LAYOUT&lt;br&gt;&lt;span style=&quot;&quot;&gt;&lt;span style=&quot;&quot;&gt;&amp;nbsp;&amp;nbsp;&amp;nbsp;&amp;nbsp;&lt;/span&gt;&lt;/span&gt;/cookies&lt;br&gt;&lt;span style=&quot;&quot;&gt;&lt;span style=&quot;&quot;&gt;&amp;nbsp;&amp;nbsp;&amp;nbsp;&amp;nbsp;&lt;/span&gt;&lt;/span&gt;/available&lt;br&gt;&lt;span style=&quot;&quot;&gt;&lt;span style=&quot;&quot;&gt;&lt;span style=&quot;&quot;&gt;&amp;nbsp;&amp;nbsp;&amp;nbsp;&amp;nbsp;&lt;/span&gt;&lt;/span&gt;&lt;span style=&quot;&quot;&gt;&lt;span style=&quot;&quot;&gt;&amp;nbsp;&amp;nbsp;&amp;nbsp;&amp;nbsp;/&lt;/span&gt;&lt;/span&gt;&lt;/span&gt;readonly" style="text;strokeColor=none;align=left;fillColor=none;html=1;verticalAlign=middle;whiteSpace=wrap;rounded=0;" vertex="1" parent="1">
          <mxGeometry x="420" y="-20" width="340" height="340" as="geometry" />
        </mxCell>
        <mxCell id="CwB2cmDh5bo-2nJxtTwJ-9" value="ZKLayourManager" style="rounded=1;whiteSpace=wrap;html=1;" vertex="1" parent="1">
          <mxGeometry x="30" y="320" width="110" height="30" as="geometry" />
        </mxCell>
        <mxCell id="CwB2cmDh5bo-2nJxtTwJ-10" value="LedgerManagerFactoryLedgerManagerFactory&lt;br&gt;&amp;nbsp;(ZKRegistrationManager&lt;span style=&quot;background-color: initial;&quot;&gt;)&lt;/span&gt;" style="rounded=0;whiteSpace=wrap;html=1;" vertex="1" parent="1">
          <mxGeometry x="360" y="460" width="170" height="60" as="geometry" />
        </mxCell>
        <mxCell id="CwB2cmDh5bo-2nJxtTwJ-11" value="LedgerManagerFactory&lt;br&gt;(LongHierarchicalLedgerManagerFactory&lt;span style=&quot;background-color: initial;&quot;&gt;)&lt;/span&gt;" style="rounded=1;whiteSpace=wrap;html=1;" vertex="1" parent="1">
          <mxGeometry x="320" y="220" width="240" height="60" as="geometry" />
        </mxCell>
      </root>
    </mxGraphModel>
  </diagram>
</mxfile>
